# xmcd
#
# Track frame offsets:
#	150
#	24311
#	42380
#	59082
#	75869
#	93800
#	106887
#	125968
#	142685
#	161223
#	179516
#	199425
#	215045
#	230372
#	246862
#	267486
#
# Disc length: 3917 seconds
# Revision: 0
# Processed by: cddbd v1.5.2PL0 Copyright (c) Steve Scherf et al.
# Submitted via: dBpowerAMP V12.0
#
DISCID=e70f4b10
DTITLE=Various Artist - NOW That's What I Call A Country Songs Of Inspiration
DYEAR=2018
DGENRE=Country Sampler
TTITLE0=Lady Antebellum - Hello World
TTITLE1=Tim McGraw - Touchdown Jesus
TTITLE2=Carrie Underwood - Jesus, Take The Wheel
TTITLE3=Rascal Flatts - Bless The Broken Road
TTITLE4=Josh Turner - Long Black Train
TTITLE5=Alison Krauss - Down To The River To Pray
TTITLE6=Vince Gill - Go Rest High On That Mountain
TTITLE7=George Strait - I Believe
TTITLE8=Alabama - Angels Among Us
TTITLE9=Brad Paisley Feat. Dolly Parton - When I Get Where I'm Going
TTITLE10=Eric Paslay - Deep As It Is Wide
TTITLE11=Phil Vassar - This Is God
TTITLE12=Chris Young - The Man I Want To Be
TTITLE13=Craig Morgan - God Must Really Love Me
TTITLE14=Brooks and Dunn - Believe
TTITLE15=Martina McBride - God's Will
EXTD=
EXTT0=
EXTT1=
EXTT2=
EXTT3=
EXTT4=
EXTT5=
EXTT6=
EXTT7=
EXTT8=
EXTT9=
EXTT10=
EXTT11=
EXTT12=
EXTT13=
EXTT14=
EXTT15=
PLAYORDER=
